<svg width="32" height="32" viewBox="0 0 32 32" fill="none" xmlns="http://www.w3.org/2000/svg">
<path d="M30.3 9.8611V22.4389C30.3 24.5238 29.4717 26.5233 27.9975 27.9975C26.5233 29.4717 24.5238 30.3 22.4389 30.3H9.8611C7.77621 30.3 5.77671 29.4717 4.30246 27.9975C2.82822 26.5233 2 24.5238 2 22.4389V9.8611C2 7.77621 2.82822 5.77671 4.30246 4.30246C5.77671 2.82822 7.77621 2 9.8611 2H22.4389C24.5238 2 26.5233 2.82822 27.9975 4.30246C29.4717 5.77671 30.3 7.77621 30.3 9.8611Z" stroke="white" stroke-width="3" stroke-linecap="round" stroke-linejoin="round"/>
<path d="M13.0052 16.1501C12.0724 16.1501 11.1605 16.4267 10.3848 16.945C9.60915 17.4633 9.0046 18.1999 8.64761 19.0618C8.29062 19.9236 8.19721 20.872 8.37921 21.787C8.5612 22.7019 9.01042 23.5423 9.67005 24.202C10.3297 24.8616 11.1701 25.3108 12.0851 25.4928C13 25.6748 13.9484 25.5814 14.8102 25.2244C15.6721 24.8674 16.4087 24.2629 16.927 23.4872C17.4453 22.7116 17.7219 21.7996 17.7219 20.8668V6.7168C18.2454 8.28902 20.2374 11.4335 24.0108 11.4335" stroke="white" stroke-width="3" stroke-linecap="round" stroke-linejoin="round"/>
</svg>
