<?xml version="1.0" encoding="utf-8"?>
<!-- Generator: Adobe Illustrator 24.1.3, SVG Export Plug-In . SVG Version: 6.00 Build 0)  -->
<svg version="1.1" id="Layer_1" xmlns="http://www.w3.org/2000/svg" xmlns:xlink="http://www.w3.org/1999/xlink" x="0px" y="0px"
	 viewBox="0 0 50 50" style="enable-background:new 0 0 50 50;" xml:space="preserve">
<style type="text/css">
	.st0{display:none;fill:#44473A;}
	.st1{fill:#DCBA77;}
</style>
<rect x="0" y="0" class="st0" width="50" height="50"/>
<path class="st1" d="M29.7,17.8c-0.1,2.4-1.7,3.9-4.5,3.9c-2.7,0-4.4-1.5-4.4-3.9h-1.9c0.1,3.7,2.7,6,6.3,6c3.8,0,6.3-2.3,6.4-6
	H29.7z"/>
<path class="st1" d="M29.6,30.8c0-1.1,1.1-1.3,2-1.4c0.7-0.1,1.2-0.1,1.2-0.5c0-0.5-0.4-0.8-1-0.8c-0.6,0-1.1,0.3-1.1,0.8h-1.1
	c0.1-1,1-1.7,2.2-1.7c1.3,0,2,0.7,2,1.7v2.1c0,0.1,0.1,0.2,0.2,0.2h0.3v0.8h-0.5c-0.5,0-0.8-0.2-0.9-0.6c0,0,0-0.1,0-0.2
	c-0.3,0.5-0.8,0.8-1.6,0.8C30.3,32.2,29.6,31.6,29.6,30.8z M32.9,30.3v-0.7c-0.2,0.3-0.6,0.3-1.1,0.4c-0.6,0.1-1.1,0.2-1.1,0.7
	c0,0.4,0.3,0.7,0.9,0.7C32.4,31.3,32.9,30.9,32.9,30.3z"/>
<path class="st1" d="M26.4,32.1v-4.7h0.8l0.1,0.9c0.3-0.6,0.9-1,1.6-1h0.2v1H29c-1,0-1.6,0.5-1.6,1.4v2.3H26.4z"/>
<path class="st1" d="M20.9,29.7c0-1.6,1-2.5,2.3-2.5c1.3,0,2.2,0.9,2.3,2.5v0.2h-3.5c0.1,0.8,0.6,1.4,1.4,1.4c0.5,0,1-0.3,1.1-0.7h1
	c-0.2,1-1,1.6-2.1,1.6C21.9,32.2,20.9,31.2,20.9,29.7z M24.4,29.2c-0.1-0.7-0.6-1.1-1.2-1.1c-0.6,0-1.1,0.4-1.2,1.1H24.4z"/>
<path class="st1" d="M15.3,29.7c0-1.6,1-2.5,2.4-2.5c1.3,0,2.2,0.8,2.3,2h-1c-0.1-0.7-0.6-1.1-1.2-1.1c-0.8,0-1.3,0.6-1.3,1.6
	c0,1,0.6,1.6,1.4,1.6c0.6,0,1.1-0.4,1.2-1.1h1c-0.1,1.2-1,2-2.2,2C16.2,32.2,15.3,31.1,15.3,29.7z"/>
</svg>
