<?xml version="1.0" encoding="utf-8"?>
<!-- Generator: Adobe Illustrator 24.1.3, SVG Export Plug-In . SVG Version: 6.00 Build 0)  -->
<svg version="1.1" id="Layer_1" xmlns="http://www.w3.org/2000/svg" xmlns:xlink="http://www.w3.org/1999/xlink" x="0px" y="0px"
	 viewBox="0 0 50 38" style="enable-background:new 0 0 50 38;" xml:space="preserve">
<style type="text/css">
	.st0{fill:#44473A;}
</style>
<path class="st0" d="M37.6,0.5C37.4,6.7,33,10.5,26,10.5c-6.9,0-11.3-3.8-11.4-9.9H9.8C9.9,10.1,16.6,16,26,16
	c9.7,0,16.3-6,16.4-15.5H37.6z"/>
<path class="st0" d="M37.4,33.9c0-2.9,2.8-3.4,5.2-3.7c1.8-0.2,3.2-0.3,3.2-1.2c0-1.2-0.9-2-2.5-2c-1.6,0-2.8,0.9-2.9,2.1h-2.7
	c0.3-2.6,2.5-4.4,5.7-4.4c3.3,0,5.1,1.8,5.1,4.4v5.5c0,0.3,0.2,0.5,0.6,0.5h0.7v2.1h-1.3c-1.2,0-2-0.5-2.2-1.4
	c0-0.1-0.1-0.3-0.1-0.4c-0.7,1.3-2,2.1-4.1,2.1C39.2,37.6,37.4,36.2,37.4,33.9z M45.8,32.7V31c-0.5,0.7-1.6,0.9-2.9,1
	c-1.5,0.2-2.8,0.4-2.8,1.7c0,1.1,0.8,1.7,2.4,1.7C44.4,35.4,45.8,34.4,45.8,32.7z"/>
<path class="st0" d="M29,37.3V25.1h2.2l0.3,2.4c0.8-1.7,2.2-2.5,4.2-2.5h0.5v2.6h-0.5c-2.5,0-4,1.4-4,3.7v6H29z"/>
<path class="st0" d="M14.8,31.3c0-4,2.6-6.5,6-6.5c3.4,0,5.7,2.4,5.8,6.4v0.6h-9.1c0.2,2.1,1.5,3.6,3.6,3.6c1.4,0,2.5-0.7,2.9-1.9
	h2.6c-0.6,2.6-2.7,4.2-5.5,4.2C17.4,37.7,14.8,35,14.8,31.3z M23.9,29.9c-0.3-1.7-1.4-2.8-3-2.8c-1.6,0-2.8,1.1-3.2,2.8H23.9z"/>
<path class="st0" d="M0.4,31.1c0-4,2.7-6.4,6.2-6.4c3.3,0,5.6,2,5.8,5.1H9.8c-0.3-1.7-1.4-2.8-3.2-2.8c-2.1,0-3.4,1.6-3.4,4
	c0,2.7,1.5,4.2,3.5,4.2c1.7,0,2.8-1.1,3.1-2.8h2.7c-0.3,3.1-2.5,5.1-5.7,5.1C2.7,37.7,0.4,34.8,0.4,31.1z"/>
</svg>
